# xmcd
#
# Track frame offsets: 
#        150
#        12839
#        23587
#        34141
#        45022
#        56036
#        68818
#        81256
#        93641
#        107780
#        120438
#        133855
#        142388
#        153218
#        164630
#        175887
#        186717
#        198532
#        210174
#        222099
#
# Disc length: 3091 seconds
#
# Revision: 0
# Processed by: cddbd v1.5.2PL0 Copyright (c) Steve Scherf et al.
# Submitted via: ExactAudioCopy v1.1
#
DISCID=1e0c1114
DTITLE=Various Artist - Country Classics - Disc 3
DYEAR=2012
DGENRE=Country
TTITLE0=I Fall To Pieces
TTITLE1=Please Help Me I'm Falling
TTITLE2=He'll Have To Go
TTITLE3=Pick Me Up On Your Way Down
TTITLE4=Cry Cry Cry
TTITLE5=(Now And Then There's) A Fool Such As I
TTITLE6=I'm So Lonesome I Could Cry
TTITLE7=Dark As A Dungeon
TTITLE8=Always Late (with Your Kisses)
TTITLE9=A Satisfied Mind
TTITLE10=City Lights
TTITLE11=I Ain't Never
TTITLE12=Wings Of A Dove
TTITLE13=The Battle Of New Orleans
TTITLE14=Last Date
TTITLE15=Tender Years
TTITLE16=Heartbreak U
TTITLE17=Sea Of Heartbreak
TTITLE18=Foolin' Around
TTITLE19=Hello Walls
EXTD=
EXTT0=
EXTT1=
EXTT2=
EXTT3=
EXTT4=
EXTT5=
EXTT6=
EXTT7=
EXTT8=
EXTT9=
EXTT10=
EXTT11=
EXTT12=
EXTT13=
EXTT14=
EXTT15=
EXTT16=
EXTT17=
EXTT18=
EXTT19=
PLAYORDER=
